<?xml version="1.0" encoding="UTF-8"?>
<svg id="Layer_1" data-name="Layer 1" xmlns="http://www.w3.org/2000/svg" version="1.1" xmlns:xlink="http://www.w3.org/1999/xlink" viewBox="0 0 490 80">
  <defs>
    <style>
      .cls-1 {
        fill: url(#linear-gradient);
      }

      .cls-1, .cls-2, .cls-3, .cls-4 {
        stroke-width: 0px;
      }

      .cls-2 {
        fill: #000;
      }

      .cls-3 {
        fill: url(#linear-gradient-2);
      }

      .cls-4 {
        fill: url(#radial-gradient);
      }
    </style>
    <linearGradient id="linear-gradient" x1="-1244.3" y1="-1452.6" x2="-1306.4" y2="-1504.7" gradientTransform="translate(-1247.4 1509.9) rotate(-180) scale(1 -1)" gradientUnits="userSpaceOnUse">
      <stop offset="0" stop-color="#00e6be"/>
      <stop offset="0" stop-color="#00e7bc"/>
      <stop offset=".6" stop-color="#00f8a3"/>
      <stop offset="1" stop-color="#00ff9b"/>
    </linearGradient>
    <linearGradient id="linear-gradient-2" x1="-6829.4" y1="1595.9" x2="-6891.5" y2="1543.7" gradientTransform="translate(6919.5 1618.5) scale(1 -1)" xlink:href="#linear-gradient"/>
    <radialGradient id="radial-gradient" cx="43.5" cy="40" fx="43.5" fy="40" r="37.8" gradientUnits="userSpaceOnUse">
      <stop offset="0" stop-color="#00ff2a"/>
      <stop offset=".2" stop-color="#00fd2d"/>
      <stop offset=".4" stop-color="#03fa37"/>
      <stop offset=".6" stop-color="#07f448"/>
      <stop offset=".8" stop-color="#0dec5f"/>
      <stop offset=".9" stop-color="#14e17e"/>
      <stop offset="1" stop-color="#18dd8c"/>
    </radialGradient>
  </defs>
  <g id="light">
    <g>
      <path class="cls-2" d="M128.2,39.5h7c-.8,4.7-2.9,8.5-6.3,11.4-3.4,2.9-7.6,4.3-12.4,4.3s-10.1-1.8-13.7-5.5c-3.6-3.7-5.4-8.3-5.4-13.9s1.8-10.2,5.4-13.9c3.6-3.7,8.2-5.5,13.7-5.5s9,1.4,12.4,4.3c3.4,2.9,5.5,6.7,6.3,11.4h-7c-.7-3-2.1-5.4-4.2-7.1-2.1-1.7-4.6-2.5-7.6-2.5s-6.6,1.2-8.8,3.6c-2.3,2.4-3.4,5.6-3.4,9.6s1.1,7.1,3.4,9.6c2.3,2.4,5.2,3.6,8.8,3.6s5.6-.8,7.7-2.5c2.1-1.7,3.4-4,4.1-7Z"/>
      <path class="cls-2" d="M150,55.8l.5-1.3h-2.1l-11.5-28.8h6.8l9,23.1,8.8-23.1h6.6l-12.4,31.9c-1.1,3-2.5,5.1-4.2,6.3-1.7,1.2-4.1,1.9-7.4,1.9h-4v-5.8h3.7c1.9,0,3.2-.3,4.1-.9.8-.6,1.6-1.7,2.2-3.3Z"/>
      <path class="cls-2" d="M176.6,54.7h-4.7V14.2h6.5v14.7c1.1-1.2,2.5-2.2,4.1-2.8,1.6-.6,3.3-1,5.1-1,4.1,0,7.5,1.4,10.3,4.3,2.8,2.9,4.2,6.4,4.2,10.8s-1.4,7.9-4.2,10.8c-2.8,2.9-6.2,4.3-10.3,4.3s-3.8-.4-5.4-1.1c-1.7-.7-3.1-1.8-4.3-3.2l-1.2,3.8ZM186.7,30.9c-2.5,0-4.6.9-6.3,2.6-1.6,1.7-2.5,4-2.5,6.7s.8,5,2.5,6.7c1.6,1.7,3.7,2.6,6.3,2.6s4.7-.8,6.3-2.5c1.6-1.7,2.4-3.9,2.4-6.7s-.8-5-2.4-6.7c-1.6-1.7-3.7-2.6-6.3-2.6Z"/>
      <path class="cls-2" d="M228.1,44.9h6.5c-.5,3.1-2.1,5.6-4.6,7.5-2.5,1.9-5.6,2.8-9.3,2.8s-8.2-1.4-11-4.2c-2.8-2.8-4.2-6.4-4.2-10.9s1.4-8.1,4.1-10.8c2.8-2.8,6.3-4.2,10.7-4.2s7.7,1.3,10.4,4c2.7,2.7,4,6.2,4,10.5s0,.5,0,.9c0,.4,0,.8,0,1.2h-22.8c.3,2.5,1.2,4.4,2.8,5.8,1.6,1.4,3.6,2.1,6,2.1s3.5-.4,4.8-1.3c1.3-.9,2.2-2,2.6-3.5ZM220.2,30.5c-2.2,0-4,.6-5.4,1.8s-2.3,2.9-2.7,5.1h16.4c-.2-2.1-1.1-3.8-2.6-5-1.5-1.2-3.4-1.8-5.7-1.8Z"/>
      <path class="cls-2" d="M240.3,54.7v-28.9h18.1l-1.9,5.9h-9.7v23h-6.5Z"/>
      <path class="cls-2" d="M262.7,54.7V17.1h6.4l21,27v-27h6.4v37.5h-6.4l-21-27v27h-6.4Z"/>
      <path class="cls-2" d="M325.4,44.9h6.5c-.5,3.1-2.1,5.6-4.6,7.5s-5.6,2.8-9.3,2.8-8.2-1.4-11-4.2c-2.8-2.8-4.2-6.4-4.2-10.9s1.4-8.1,4.1-10.8c2.8-2.8,6.3-4.2,10.7-4.2s7.7,1.3,10.4,4c2.7,2.7,4,6.2,4,10.5s0,.5,0,.9c0,.4,0,.8,0,1.2h-22.8c.3,2.5,1.2,4.4,2.8,5.8,1.6,1.4,3.6,2.1,6,2.1s3.5-.4,4.8-1.3c1.3-.9,2.2-2,2.6-3.5ZM317.5,30.5c-2.2,0-4,.6-5.4,1.8-1.4,1.2-2.3,2.9-2.7,5.1h16.4c-.2-2.1-1.1-3.8-2.6-5-1.5-1.2-3.4-1.8-5.7-1.8Z"/>
      <path class="cls-2" d="M350.3,48.7h4.9v6h-5.1c-3.9,0-6.8-.8-8.6-2.4-1.8-1.6-2.7-4.2-2.7-7.7v-13.4h-4.6v-1.1l10-10.3h1.1v5.9h9.5v5.5h-9.5v13c0,1.6.4,2.7,1.2,3.5.8.7,2.1,1.1,3.8,1.1Z"/>
      <path class="cls-2" d="M393.7,54.7h-6.7l-6.7-17.2-7.1,17.2h-6.3l-10.2-28.9h6.5l7.4,21.3,6.9-16.7-1.8-4.6h6.6l8.2,21.4,6.7-21.4h5.9l-9.3,28.9Z"/>
      <path class="cls-2" d="M419.2,25.1c4.5,0,8.2,1.4,11.1,4.2,2.9,2.8,4.3,6.4,4.3,10.8s-1.4,8-4.3,10.8c-2.9,2.8-6.6,4.2-11.1,4.2s-8.2-1.4-11-4.2c-2.9-2.8-4.3-6.4-4.3-10.8s1.4-8,4.3-10.8c2.9-2.8,6.5-4.2,11-4.2ZM419.2,49.4c2.6,0,4.7-.8,6.4-2.5s2.5-3.9,2.5-6.7-.8-5-2.5-6.7c-1.6-1.7-3.8-2.6-6.4-2.6s-4.7.9-6.4,2.6c-1.6,1.7-2.4,4-2.4,6.7s.8,5,2.4,6.7c1.6,1.7,3.7,2.5,6.4,2.5Z"/>
      <path class="cls-2" d="M440.1,54.7v-28.9h18.1l-1.9,5.9h-9.7v23h-6.5Z"/>
      <path class="cls-2" d="M461.9,54.7V14.2h6.5v22.9h4.3l9.4-11.4h7.2v.3l-11.4,13.7,12,14.7v.3h-7.7l-9.7-12h-4.2v12h-6.5Z"/>
    </g>
    <g>
      <g>
        <path id="left" class="cls-1" d="M1.6,39.5L21.1,13c3.9-5.3,12.7-5.3,16.5,0l15.1,20.6c.8,1.1-.6,2.3-1.9,1.7-12-5.7-21.5,3.4-21.5,3.4l-13.7,11.9c-1.5,1.3-3.5,2.1-5.6,2.1-7.9.2-12.8-7.5-8.5-13.2Z"/>
        <path id="right" class="cls-3" d="M85.5,40.5l-19.5,26.6c-3.9,5.3-12.7,5.3-16.5,0l-15.1-20.6c-.8-1.1.6-2.3,1.9-1.7,12,5.7,21.5-3.4,21.5-3.4l13.7-11.9c1.5-1.3,3.5-2.1,5.6-2.1,7.9-.2,12.8,7.5,8.5,13.2Z"/>
      </g>
      <g>
        <path id="left-2" data-name="left" class="cls-4" d="M1.6,39.5L21.1,13c3.9-5.3,12.7-5.3,16.5,0l15.1,20.6c.8,1.1-.6,2.3-1.9,1.7-12-5.7-21.5,3.4-21.5,3.4l-13.7,11.9c-1.5,1.3-3.5,2.1-5.6,2.1-7.9.2-12.8-7.5-8.5-13.2Z"/>
        <path id="right-2" data-name="right" class="cls-4" d="M85.5,40.5l-19.5,26.6c-3.9,5.3-12.7,5.3-16.5,0l-15.1-20.6c-.8-1.1.6-2.3,1.9-1.7,12,5.7,21.5-3.4,21.5-3.4l13.7-11.9c1.5-1.3,3.5-2.1,5.6-2.1,7.9-.2,12.8,7.5,8.5,13.2Z"/>
      </g>
    </g>
  </g>
</svg>